<svg width="37" height="32" viewBox="0 0 37 32" fill="none" xmlns="http://www.w3.org/2000/svg">
<path d="M33.1661 10.231H3.8339C3.41731 10.2226 3.00415 10.3078 2.62503 10.4801C2.24593 10.6525 1.91056 10.9077 1.64381 11.2268C1.37705 11.5459 1.18573 11.9208 1.08402 12.3236C0.982309 12.7265 0.972815 13.1469 1.05624 13.5539L4.11167 28.7839C4.24155 29.4186 4.59062 29.9882 5.09816 30.3927C5.60567 30.7976 6.23954 31.0122 6.88935 30.9991H30.1107C30.7607 31.0122 31.3945 30.7976 31.902 30.3927C32.4095 29.9882 32.7587 29.4186 32.8884 28.7839L35.9438 13.5539C36.0271 13.1469 36.0177 12.7265 35.916 12.3236C35.8144 11.9208 35.623 11.5459 35.3563 11.2268C35.0894 10.9077 34.7541 10.6525 34.375 10.4801C33.9958 10.3078 33.5828 10.2226 33.1661 10.231Z" stroke="white" stroke-linecap="round" stroke-linejoin="round"/>
<path d="M24.3335 1L30.1668 10.2308" stroke="white" stroke-linecap="round" stroke-linejoin="round"/>
<path d="M6.8335 10.2308L12.6668 1" stroke="white" stroke-linecap="round" stroke-linejoin="round"/>
<path d="M18.4925 25.21C17.8625 25.21 17.3048 25.084 16.8195 24.832C16.3388 24.58 15.9608 24.2277 15.6855 23.775C15.4148 23.3177 15.2795 22.7833 15.2795 22.172C15.2795 21.5467 15.4311 20.9913 15.7345 20.506C16.0378 20.016 16.4998 19.645 17.1205 19.393L17.1065 19.799C16.5885 19.6077 16.1941 19.295 15.9235 18.861C15.6528 18.427 15.5175 17.9463 15.5175 17.419C15.5175 16.859 15.6458 16.3783 15.9025 15.977C16.1591 15.571 16.5091 15.2583 16.9525 15.039C17.4005 14.8197 17.9138 14.71 18.4925 14.71C19.0711 14.71 19.5845 14.8197 20.0325 15.039C20.4805 15.2583 20.8328 15.571 21.0895 15.977C21.3461 16.3783 21.4745 16.859 21.4745 17.419C21.4745 17.9463 21.3438 18.4247 21.0825 18.854C20.8258 19.2833 20.4315 19.5983 19.8995 19.799L19.8645 19.393C20.4851 19.6403 20.9495 20.009 21.2575 20.499C21.5701 20.989 21.7265 21.5467 21.7265 22.172C21.7265 22.7833 21.5888 23.3177 21.3135 23.775C21.0381 24.2277 20.6578 24.58 20.1725 24.832C19.6871 25.084 19.1271 25.21 18.4925 25.21ZM18.4925 24.223C19.1271 24.223 19.6428 24.048 20.0395 23.698C20.4361 23.3433 20.6345 22.8347 20.6345 22.172C20.6345 21.5 20.4385 20.9913 20.0465 20.646C19.6545 20.296 19.1365 20.121 18.4925 20.121C17.8485 20.121 17.3328 20.296 16.9455 20.646C16.5581 20.9913 16.3645 21.5 16.3645 22.172C16.3645 22.8347 16.5605 23.3433 16.9525 23.698C17.3445 24.048 17.8578 24.223 18.4925 24.223ZM18.4925 19.127C19.0525 19.127 19.5075 18.9847 19.8575 18.7C20.2075 18.4107 20.3825 17.9837 20.3825 17.419C20.3825 16.8543 20.2075 16.432 19.8575 16.152C19.5075 15.8673 19.0525 15.725 18.4925 15.725C17.9325 15.725 17.4775 15.8673 17.1275 16.152C16.7821 16.432 16.6095 16.8543 16.6095 17.419C16.6095 17.9837 16.7821 18.4107 17.1275 18.7C17.4775 18.9847 17.9325 19.127 18.4925 19.127Z" fill="white"/>
</svg>
